<svg xmlns="http://www.w3.org/2000/svg" class="css-1j8o68f" viewBox="0 -5 351 107.853" width="150" height="40"><defs id="SvgjsDefs1001" />
      <g id="SvgjsG4490" fill="#222222" transform="matrix(1.13084 0 0 1.13084 -13.0657 -11.2196)" featurekey="symbolFeature-0"><path d="M 87.8 36.9 C 87.8 36.9 87.8 36.8 87.8 36.9 c -3.6 -7.2 -9.1 -13 -15.7 -16.9 c -2.3 -5.7 -4.6 -12.8 -4.6 -12.9 L 67 5.5 l -1.6 0.6 c -4.9 1.8 -7.4 5.3 -8.5 8.7 c -3.3 -0.4 -6.6 0.2 -9.6 1.6 c -3.2 1.6 -5.7 4 -7.3 7.1 c -2.3 1.2 -3.9 3.2 -4.7 5.6 c -0.8 2.5 -0.6 5.2 0.6 7.6 c 1.2 2.4 3.3 4.2 5.8 5 c 2.5 3.2 6 5.3 9.9 6.1 c -2.6 1.7 -4.5 4.3 -5.3 7.2 c -0.4 1.3 -0.7 3.7 1 5.4 c -2.1 0.1 -4.2 0.6 -6.3 1.6 c 0.1 -0.2 0.1 -0.3 0.2 -0.5 c 0.2 -0.6 0.7 -1.1 1.2 -1.7 c 1.2 -1.5 3.3 -4.1 0.2 -7.5 c -0.8 -0.9 -1.8 -1.3 -3 -1.1 C 34.2 52.1 27.9 65 27.9 65.1 c -1.4 2.9 -2.1 5.3 -2.4 7 c -1.7 -3.1 -3.3 -7.3 -4.2 -13 C 19 45 28.6 34.4 28.7 34.4 c 1.3 -1.3 3.2 -4.5 0.7 -7.5 c -0.8 -0.9 -1.8 -1.4 -2.9 -1.4 c -2.2 0 -4 1.8 -4.2 2 c -11.4 12.2 -14 30.5 -6.5 45.4 c 3.1 6.1 7.7 11.4 13.3 15.2 c 6.8 4.6 14.7 7 22.7 7 c 6.2 0 12.3 -1.4 18 -4.3 C 89.6 80.9 97.7 56.7 87.8 36.9 Z M 87.6 45.7 C 87.5 45.7 87.5 45.7 87.6 45.7 c -5.2 1.1 -10.7 1.2 -11.7 0.2 c 0.5 -1.2 4.8 -4 9.6 -6.2 C 86.4 41.7 87.1 43.7 87.6 45.7 Z M 75.4 83.2 c -0.1 -0.1 -0.2 -0.2 -0.3 -0.3 c -0.6 -0.5 -1.9 -1.8 -2 -2.8 c 0 -0.2 0 -0.6 0.4 -1 c 0.3 -0.3 0.7 -0.5 1.2 -0.5 c 1.2 0 2.7 0.7 3.9 1.4 C 77.7 81.2 76.6 82.2 75.4 83.2 Z M 86.4 67.6 c -7.4 -2.2 -13.2 -5.4 -13.2 -6.7 c 0.8 -1.8 8.6 -2 15.2 -1.1 C 88 62.5 87.3 65.1 86.4 67.6 Z M 70.2 59.6 c -0.4 0.9 -0.4 1.9 0 2.9 c 1.8 4 11.8 7.3 14.9 8.3 c -1.1 2.4 -2.5 4.7 -4.2 6.8 c -2.2 -1.4 -6.8 -3.7 -9.7 -0.7 c -1 1 -1.4 2.3 -1.3 3.6 c 0.2 2.3 2 4.1 2.9 4.8 c -1.4 1 -2.9 1.9 -4.5 2.6 c -12 6 -26.3 5 -37.4 -2.5 c -5.2 -3.5 -9.4 -8.4 -12.2 -14 c -6.9 -13.7 -4.5 -30.5 6 -41.7 c 0.4 -0.4 1.2 -1 1.7 -1 c 0.1 0 0.2 0 0.4 0.3 c 1.1 1.3 -0.2 2.7 -0.5 3 c -0.4 0.5 -10.9 11.9 -8.3 27.6 C 21 78.9 31.5 82.8 32.8 83.3 c 9.1 3.8 17.5 -0.6 17.8 -0.8 l -1.6 -2.9 c -0.1 0 -7.4 3.9 -15.1 0.6 l -0.2 -0.1 c -0.2 -0.1 -2.8 -0.9 -5.6 -4.1 c 0.2 -0.3 0.3 -0.7 0.3 -1 c 0 0 -0.2 -3.1 2.4 -8.4 c 2.9 -6.2 7.5 -11.9 9 -11.9 h 0.1 c 1.2 1.4 1 1.7 -0.3 3.2 c -0.6 0.7 -1.3 1.5 -1.7 2.6 c -1.1 2.6 -2.5 5.1 -3.5 6.9 c -0.9 1.4 -1.5 2.4 -1.5 2.4 c 0 0.1 -0.1 0.1 -0.1 0.2 c 0 0.1 -0.1 0.1 -0.1 0.2 c 0 0 0 0.1 0 0.1 c 0 0.1 0 0.1 0 0.2 c 0 0.1 0 0.2 0 0.2 c 0 0.1 0 0.2 0 0.3 c 0 0.1 0.1 0.3 0.1 0.4 c 0.1 0.3 0.3 0.5 0.6 0.7 c 0.1 0 0.1 0.1 0.2 0.1 c 0.1 0 0.1 0.1 0.2 0.1 c 0.1 0 0.1 0 0.2 0.1 c 0.2 0.1 0.4 0.1 0.7 0 c 0.1 0 0.3 -0.1 0.4 -0.1 c 0.1 0 0.1 -0.1 0.2 -0.1 c 0.1 0 0.1 -0.1 0.2 -0.1 c 0.1 0 0.1 -0.1 0.2 -0.2 c 0 -0.1 0.1 -0.1 0.1 -0.2 c 0.1 -0.1 0.7 -1 1.5 -2.4 c 1.2 -1.6 2.8 -2.9 4.7 -3.8 c 4.1 -2 8.7 -1.9 12.5 0.1 c 0 0 0 0 0 0 c 2.5 1.3 4.6 3.4 6 6.1 c 1.2 2.5 1.7 5.2 1.3 7.9 c -0.1 0.9 0.5 1.7 1.4 1.9 c 0.1 0 0.1 0 0.2 0 c 0.8 0 1.5 -0.6 1.6 -1.4 c 0.4 -3.4 -0.1 -6.8 -1.7 -9.9 c -1.5 -2.9 -3.6 -5.2 -6.2 -6.8 c 0.4 -2.5 -0.4 -5 -0.5 -5.4 c 0 -0.1 0 -0.1 -0.1 -0.2 c 0.2 -0.2 0.5 -0.5 0.8 -0.7 c 0.6 -0.4 1.4 -0.8 2.1 -0.8 c 0.8 0 1.5 0.4 2.2 1.3 c 0.6 0.7 1.6 0.8 2.3 0.2 c 0.7 -0.6 0.8 -1.6 0.2 -2.3 c -1.7 -2 -3.5 -2.5 -4.8 -2.5 c 0 0 0 0 0 0 c -3.4 0 -5.9 3 -6.2 3.4 c -0.1 0.1 -0.2 0.2 -0.2 0.3 c -0.1 0.1 -1.3 2.7 -3.2 1.9 c -1.1 -0.5 -0.7 -1.9 -0.6 -2.3 c 0.8 -2.7 2.6 -4.9 5.2 -6.2 c 4.6 -2.3 10.2 -0.8 13 3.5 c 0.5 0.8 1.5 1 2.3 0.5 c 0.8 -0.5 1 -1.5 0.5 -2.3 c -2.2 -3.4 -5.7 -5.5 -9.4 -6 c 0 -0.1 0 -0.2 -0.1 -0.2 c -0.3 -0.9 -1.2 -1.4 -2.1 -1.1 c -5.5 1.6 -11.4 -0.4 -14.7 -5 L 43.5 39 L 43 38.8 c -1.8 -0.5 -3.4 -1.7 -4.2 -3.4 c -0.8 -1.6 -0.9 -3.4 -0.4 -5.1 c 0.1 -0.2 0.2 -0.5 0.3 -0.7 c 0.2 -0.1 0.3 -0.2 0.4 -0.3 c 0.2 -0.2 0.7 -0.6 1.2 -0.8 l 1.5 0 l 1 0 h 0 c 0.7 0 1.3 -0.4 1.5 -1.1 c 0.3 -0.7 0.1 -1.4 -0.5 -1.9 L 43 24.9 c 1.3 -2.4 3.3 -4.3 5.7 -5.5 c 2.1 -1 4.4 -1.5 6.7 -1.4 v 0 c 0.3 0 0.5 0.1 0.8 0.1 c -0.1 1.2 -0.1 2.2 0.1 3.1 c 0.1 0.9 1 1.5 1.9 1.4 c 0.7 -0.1 1.3 -0.7 1.4 -1.4 c 0 -0.2 0 -0.3 0 -0.5 c 0 -0.1 -0.1 -0.9 -0.1 -2.1 c 0 -0.9 0.2 -2.1 0.6 -3.2 c 0.7 -2 2 -4.1 4.7 -5.5 c 0.6 1.8 1.6 4.8 2.8 7.9 c 0.6 1.5 1.2 3.1 1.8 4.6 c 0.1 0.2 0.2 0.4 0.2 0.6 c 0.2 0.3 0.3 0.7 0.4 1 c 0.3 0.6 0.9 1 1.5 1 c 0.2 0 0.5 0 0.7 -0.1 c 0.2 -0.1 0.4 -0.2 0.5 -0.3 c 4.6 3.1 8.4 7.3 11.2 12.3 c -3.7 1.7 -10.3 5.1 -11.3 8.2 c -0.3 0.9 -0.2 1.8 0.3 2.5 c 1.1 1.9 4 2.4 7 2.4 c 3.3 0 6.7 -0.7 8.3 -1 c 0 0 0 0 0 0 c 0.4 2.6 0.6 5.1 0.4 7.7 C 84.1 56 72.4 54.9 70.2 59.6 Z" /><path d="M 54.4 29.1 c -0.2 0.1 -0.4 0.1 -0.5 0.1 c -0.7 0 -1.3 -0.4 -1.6 -1.1 c -0.5 -1.4 -1.4 -1.4 -2.1 -1.2 c -0.9 0.2 -1.8 -0.3 -2.1 -1.1 c -0.3 -0.9 0.2 -1.8 1.1 -2 c 1.8 -0.6 5 -0.2 6.2 3.3 C 55.7 27.9 55.2 28.8 54.4 29.1 Z" /><path d="M 55.6 41.8 c -0.2 0.3 -0.6 0.5 -0.9 0.5 c -0.2 0 -0.4 -0.1 -0.6 -0.2 l -7.2 -4.8 c -0.5 -0.3 -0.6 -1 -0.3 -1.5 c 0.3 -0.5 1 -0.6 1.5 -0.3 l 7.2 4.8 C 55.8 40.6 55.9 41.3 55.6 41.8 Z" /><path d="M 59.1 36.7 c -0.2 0.5 -0.6 0.8 -1.1 0.8 c -0.1 0 -0.2 0 -0.3 -0.1 l -10.6 -3.5 c -0.6 -0.2 -0.9 -0.8 -0.7 -1.4 c 0.2 -0.6 0.8 -0.9 1.4 -0.7 l 10.6 3.5 C 59 35.5 59.3 36.1 59.1 36.7 Z" /></g>
<g id="SvgjsG1008" fill="#333333" transform="matrix(3.11404 0 0 3.11404 107.262 -29.1648)" featurekey="nameFeature-0"><path d="M 14.189 40.044 l -2.4919 -0.033008 l 0 -15.873 l -3.1297 8.9428 l -2.1079 0.35106 l -1.3092 -5.174 l -1.2456 -5.6208 l 0.65692 5.4224 l -0.27902 11.857 l -3.0822 -0.039102 c 0 -0.53348 0.4676 -27.752 0.4676 -27.752 l 2.0581 0 l 3.4823 15.582 l -0.18934 2.899 l 3.8157 -18.481 l 2.6192 0 Z M 24.5576 12.19 l 3.4508 27.854 l -2.4912 0 l -0.89684 -6.5524 l -0.34953 -2.9028 l -0.22535 1.0103 c -0.87384 -0.10961 -3.9498 -0.17859 -3.9498 -0.17859 l -0.26445 8.4116 l -4.0312 0.21156 l 0.4032 -1.714 l 2.5816 -0.44688 l -2.4421 -0.14562 l 2.0136 -8.556 l 6.2977 0 l -1.5652 -11.978 l -2.1102 11.271 l -2.2658 0.17859 l 3.6409 -16.462 l 2.2038 0 Z M 39.051 15.561 l 0.5832 8.9368 l -0.33879 8.86 l -2.2635 6.04 l -4.9532 0.64616 l -3.2148 -5.9836 l -0.01918 -14.629 c -0.10117 -0.38098 1.3813 -5.9016 1.3813 -5.9016 l 4.2948 -1.9163 l 1.9584 0.50284 l -3.7437 2.4245 l -2.2298 4.9824 l 0.069764 10.572 s 1.5453 6.1956 1.7025 6.1956 s 2.0244 1.6772 2.0244 1.6772 l 1.8948 -1.4855 l 1.52 -5.206 l 0.66228 -6.9944 l -1.1498 -5.6532 l -2.6476 0.51124 l -1.6373 5.686 l 0.55728 2.7142 l 1.9508 -0.47908 l -0.91444 -3.4172 l 1.2801 -0.28746 s 0.52276 4.1676 0.52276 4.3116 c 0 0.10426 -1.3061 6.5152 -1.3061 6.5152 l -1.0976 1.1023 l -0.94052 -5.5572 l -0.78416 -4.902 l 1.0976 -7.4584 l 3.6716 -3.8211 Z M 43.7696 37.3442 l -3.9062e-005 0.558 l -0.96352 -0.50668 l 0.96352 0.74276 l 0 0.80406 l -0.79872 0.79948 l -1.0655 0 l -0.63924 -0.42616 l -0.42616 -1.599 l 0.90528 -0.87 l 1.2257 0 Z M 54.3592 15.012 l -5.41 -0.21457 l 0.25219 8.2708 l 2.7955 0.0091796 l -0.37789 2.8676 l -0.2307 -0.019922 l -3.2063 -0.47832 l 1.2272 0.5948 l 0.01457 13.773 l -3.2224 0.22996 c -0.035274 -0.46376 0.68524 -8.556 0.68524 -8.556 l -0.45608 -19.624 l 8.0454 0 Z M 62.4376 12.19 l 3.4508 27.854 l -2.4912 0 l -0.89684 -6.5524 l -0.34953 -2.9028 l -0.22535 1.0103 c -0.87384 -0.10961 -3.9498 -0.17859 -3.9498 -0.17859 l -0.26445 8.4116 l -4.0312 0.21156 l 0.4032 -1.714 l 2.5816 -0.44688 l -2.4421 -0.14562 l 2.0136 -8.556 l 6.2977 0 l -1.5652 -11.978 l -2.1102 11.271 l -2.2658 0.17859 l 3.6409 -16.462 l 2.2038 0 Z M 75.6192 12.244 l 2.6514 -0.27367 l -0.8148 28.074 l -2.3816 0 l -4.35 -21.367 l -0.0076564 21.175 l -2.8622 0.17172 l -0.33422 -26.139 c 1.441 -0.25524 3.5958 -0.66916 3.5958 -0.66916 l -3.5958 0.16402 l 0 -0.88074 l 4.1384 -0.19547 c 0.96812 5.0008 3.6732 15.908 3.6732 15.908 Z" /></g></svg>